<?xml version="1.0" encoding="utf-8"?>
<!-- Generator: Moho 14.3 build 20241125 -->
<!DOCTYPE svg PUBLIC "-//W3C//DTD SVG 1.1//EN" "http://www.w3.org/Graphics/SVG/1.1/DTD/svg11.dtd">
<svg version="1.1" id="Frame_1" xmlns="http://www.w3.org/2000/svg" xmlns:xlink="http://www.w3.org/1999/xlink" width="320px" height="240px">
<path id="S2" fill="#00719e" fill-rule="evenodd" stroke="none" d="M 146.562 165.005 C 141.621 161.999 136.740 157.920 132.655 152.445 C 128.571 146.970 125.282 140.099 123.526 131.510 C 120.859 118.466 121.646 106.764 124.539 96.548 C 127.431 86.332 132.430 77.602 138.187 70.503 C 143.944 63.404 150.459 57.935 156.383 54.241 C 156.383 54.243 156.012 68.567 157.892 73.720 C 158.922 76.542 161.361 79.902 163.861 82.602 C 167.653 86.698 171.444 93.188 171.389 93.337 C 164.760 93.324 147.277 107.251 147.283 133.238 C 147.288 158.895 164.494 172.658 171.039 172.658 C 168.805 172.662 165.154 172.287 160.829 171.123 C 156.500 169.958 151.503 168.010 146.562 165.005 M 171.039 172.662 C 171.039 172.661 171.039 172.660 171.039 172.658 Z"/>
<path id="S7" fill="#013055" fill-rule="evenodd" fill-opacity="0.301961" stroke="none" d="M 149.379 118.314 C 148.071 122.731 147.281 127.712 147.283 133.238 C 147.288 158.895 164.494 172.658 171.039 172.658 C 171.039 172.658 171.039 172.662 171.039 172.662 C 168.805 172.662 165.154 172.287 160.829 171.123 C 156.500 169.958 151.503 168.010 146.562 165.005 C 141.621 161.999 136.740 157.920 132.655 152.445 C 128.571 146.970 125.282 140.099 123.526 131.510 C 122.532 126.649 122.018 121.974 121.913 117.493 C 126.281 115.656 130.947 114.539 134.870 114.628 C 139.299 114.729 144.476 116.113 149.379 118.314 Z"/>
<path id="S9" fill="#78c471" fill-rule="evenodd" fill-opacity="0.149020" stroke="none" d="M 165.030 95.777 C 167.520 94.156 169.776 93.334 171.389 93.337 C 171.444 93.188 167.653 86.698 163.861 82.602 C 161.361 79.902 158.922 76.542 157.892 73.720 C 156.031 68.618 156.376 54.524 156.383 54.245 C 156.383 54.245 156.383 54.241 156.383 54.241 C 152.294 56.790 147.925 60.185 143.717 64.377 C 141.918 72.325 141.678 79.671 144.050 84.121 C 147.230 90.083 156.205 94.462 165.030 95.777 Z"/>
<path id="S2" fill="none" stroke="#0b87bb" stroke-width="1" stroke-linecap="round" stroke-linejoin="round" d="M 146.562 165.005 C 141.621 161.999 136.740 157.920 132.655 152.445 C 128.571 146.970 125.282 140.099 123.526 131.510 C 120.859 118.466 121.646 106.764 124.539 96.548 C 127.431 86.332 132.430 77.602 138.187 70.503 C 143.944 63.404 150.459 57.935 156.383 54.241 C 156.383 54.243 156.012 68.567 157.892 73.720 C 158.922 76.542 161.361 79.902 163.861 82.602 C 167.653 86.698 171.444 93.188 171.389 93.337 C 164.760 93.324 147.277 107.251 147.283 133.238 C 147.288 158.895 164.494 172.658 171.039 172.658 C 168.805 172.662 165.154 172.287 160.829 171.123 C 156.500 169.958 151.503 168.010 146.562 165.005 M 171.039 172.662 C 171.039 172.661 171.039 172.660 171.039 172.658 "/>
<path id="S3_2" fill="#7bc522" fill-rule="evenodd" stroke="none" d="M 173.529 172.781 C 169.723 166.787 167.588 158.901 167.341 148.728 C 167.020 135.525 172.254 126.439 177.235 117.792 C 178.991 114.743 180.716 111.749 182.155 108.649 C 181.074 111.802 179.774 114.840 178.458 117.915 C 174.756 126.566 170.931 135.504 171.531 148.086 C 171.931 156.477 172.928 163.488 175.090 169.244 C 175.620 167.073 176.054 164.454 176.732 162.885 C 177.244 161.699 177.710 161.069 178.695 159.052 C 182.297 151.675 193.858 145.749 198.898 133.437 C 202.734 124.065 201.711 114.470 200.941 107.244 C 200.832 106.221 200.728 105.246 200.643 104.325 C 199.272 89.384 195.614 80.259 194.611 79.968 C 194.002 79.790 182.550 87.433 177.873 90.958 C 174.556 93.459 169.630 94.874 166.224 97.161 C 164.195 98.524 163.231 98.972 160.496 101.787 C 153.197 109.297 148.451 119.623 148.905 133.880 C 149.312 146.651 153.010 155.852 158.620 162.468 C 164.033 168.852 171.788 173.383 173.308 172.889 C 173.384 172.864 173.458 172.828 173.529 172.781 Z"/>
<path id="S8" fill="#78c471" fill-rule="evenodd" fill-opacity="0.149020" stroke="none" d="M 200.748 105.410 C 200.711 105.041 200.676 104.679 200.643 104.325 C 199.272 89.384 195.614 80.259 194.611 79.968 C 194.002 79.790 182.550 87.433 177.873 90.958 C 176.933 91.667 175.865 92.288 174.738 92.867 C 176.293 98.166 178.725 103.652 182.736 105.723 C 187.457 108.160 194.427 107.520 200.748 105.410 Z"/>
<path id="S6" fill="#006924" fill-rule="evenodd" fill-opacity="0.301961" stroke="none" d="M 149.189 138.297 C 150.221 148.809 153.679 156.641 158.620 162.468 C 164.033 168.852 171.788 173.383 173.308 172.889 C 173.384 172.864 173.458 172.828 173.529 172.781 C 169.723 166.787 167.588 158.901 167.341 148.728 C 167.196 142.798 168.173 137.699 169.744 133.096 C 166.623 132.781 163.618 132.863 161.003 133.561 C 157.476 134.504 153.344 136.142 149.189 138.297 M 194.711 140.812 C 189.095 148.466 181.493 153.321 178.695 159.052 C 177.710 161.069 177.244 161.699 176.732 162.885 C 176.054 164.454 175.620 167.073 175.090 169.244 C 172.928 163.488 171.931 156.477 171.531 148.086 C 171.271 142.643 171.840 137.882 172.868 133.531 C 178.132 134.450 183.469 136.262 187.632 137.959 C 189.644 138.779 192.182 139.704 194.711 140.812 Z"/>
</svg>
